<?xml version="1.0" encoding="UTF-8"?>
<!DOCTYPE svg PUBLIC "-//W3C//DTD SVG 1.1//EN" "http://www.w3.org/Graphics/SVG/1.1/DTD/svg11.dtd">
<!-- Creator: CorelDRAW 2019 (64 Bit) -->
<svg xmlns="http://www.w3.org/2000/svg" xml:space="preserve" width="1115px" height="1115px" version="1.1" style="shape-rendering:geometricPrecision; text-rendering:geometricPrecision; image-rendering:optimizeQuality; fill-rule:evenodd; clip-rule:evenodd"
viewBox="0 0 1161.14 1161.14"
 xmlns:xlink="http://www.w3.org/1999/xlink">
 <defs>
  <style type="text/css">
   <![CDATA[
    .str1 {stroke:white;stroke-width:17.35;stroke-miterlimit:22.9256}
    .str2 {stroke:white;stroke-width:8.67;stroke-miterlimit:22.9256}
    .str0 {stroke:white;stroke-width:2.46;stroke-miterlimit:22.9256}
    .str3 {stroke:white;stroke-width:0.94;stroke-miterlimit:22.9256}
    .fil0 {fill:black}
    .fil1 {fill:white}
    .fil2 {fill:white;fill-rule:nonzero}
   ]]>
  </style>
 </defs>
 <g id="Camada_x0020_1">
  <metadata id="CorelCorpID_0Corel-Layer"/>
  <rect class="fil0" width="1161.14" height="1161.14"/>
  <path class="fil1 str0" d="M485.11 219.01l-7.85 -4.74c-9.81,-5.95 -20.73,-11.34 -31.3,-14.91 -24.16,-8.14 -37.23,-8.59 -63.43,-8.11 -7.77,0.15 -14.73,1.13 -18.78,7.58 -5.94,9.48 -7.16,44.73 -5.46,59.62 0.66,5.76 1.77,4.29 1.83,10.89 0.18,18.95 8.85,44.96 17.33,62.45l8.83 16.38c5.41,8.32 10.57,15.75 17.29,22.44 6.48,6.45 12.34,13.22 20.74,18.84 -4.51,1.71 -16.52,2.55 -25.53,5.39 -22.36,7.03 -33.63,13.22 -52.11,27.04l-7.93 8.52c-22.29,24.93 -15.06,27.42 5.02,47.35 4.18,4.16 9.17,6.57 14.2,10.04l15.23 9.35c0.19,0.11 0.47,0.28 0.66,0.38l4.52 2.11c36.03,14.53 61.83,18.91 102.62,13.88 26.93,-3.32 48,-13.49 69.92,-26.19 7.94,-4.61 11.47,-7.56 17.79,-13.92 1.91,2.37 0.97,-0.43 0.94,4.51l-8.33 108.03c-1.54,9.83 -3.77,18.06 -4.95,27 -2.97,22.41 -12.2,52.18 -20.02,73.81 -5.36,14.8 -12.66,28.48 -20.77,41.65 -2.33,3.79 -3.66,5.82 -5.87,9.54 -1.62,2.74 -0.94,1.92 -3.11,4.41l-10.48 12.91c-10.48,16.78 5.83,27.49 14.81,18 2.4,-2.54 4.64,-5.71 6.64,-8.78 2.31,-3.54 3.45,-4.64 6.58,-8.92 2.26,-3.07 4.28,-5.99 6.17,-9.17l17.6 -30.02c12.83,-24.19 3.49,-18.49 21.92,-19.98l29.93 -3.44c11.8,-2.01 24.83,-5.77 35.14,-9.62 26.1,-9.74 47.8,-24.57 66.63,-44.32l11.31 -10.71c10.42,-12.5 29.26,-43.25 29.73,-58.25 0.51,-16.08 -13.64,-11 -32.91,-11l-34.33 5.81c-16.59,3.98 -34.4,13.31 -47.6,22.4 -5.53,3.8 -10.37,6.56 -16.34,11.17 -2.83,2.19 -4.08,4.28 -6.85,6.38 -10.13,7.68 -8.49,8.82 -13.78,13.77 -6.56,6.15 -11.23,10.97 -15.83,18.29 -2.79,4.44 -0.38,2.29 -4.48,4.27 1.48,-9.21 7.57,-27.31 8.95,-38.17 1.79,-14.1 4.66,-26.8 5.79,-41.75 1.02,-13.51 3.9,-28.8 3.98,-44.03 0.07,-14.67 0.78,-30.22 1.1,-45.6 5.8,4.28 13.17,10 18.68,14.12 6.41,4.8 14.05,9.04 19.95,11.91 26.53,12.86 49,17.18 78.56,17.86 32.75,0.75 61.36,-7.78 89.56,-23.18 8.6,-4.7 25.56,-17.18 31.44,-24.77 8.11,-10.47 10.19,-16.95 1.25,-28.62 -3.77,-4.92 -8.12,-10.43 -13.55,-15.02 -1.74,-1.47 -2.37,-1.68 -4.15,-3.55 -2.88,-3.01 -1.24,-2 -4.76,-4.1 -3.21,-1.91 -7.06,-3.9 -9.78,-5.56 -9.9,-6.04 -21.18,-11.45 -32.61,-15.61 -9.6,-3.49 -19.77,-2.43 -24.54,-4.09 -3.42,-1.19 -1.64,-0.13 -3.84,-2.18 11.78,-5.34 25.15,-23.83 32.21,-32.95 5.27,-6.81 6.71,-7.59 10.75,-15.67l6.57 -13.24c11.43,-27.84 16.48,-50.28 17.36,-81.76 1.49,-53.55 -1.92,-56.22 -49.66,-54.06 -49.45,2.24 -69.64,25.96 -78.19,27.5 -1.87,-8.5 -6.47,-19.54 -8.43,-24.34 -0.36,-0.86 -0.6,-1.28 -1.04,-2.2 -6.63,-13.71 -14.18,-25.49 -24.96,-36.9 -8.5,-8.99 -15.26,-16.44 -25.53,-22.87 -23.27,-14.55 -34.65,-24.21 -59.8,-6.87 -9.63,6.64 -22.66,13.96 -29.41,22.44l-12.23 13.09c-2.38,2.54 -2.37,4.33 -4.68,7.31 -1.47,1.91 -4,4.66 -5.44,7.01 -0.99,1.61 -0.12,0.03 -1.08,2.06l-4.32 7.87c-0.11,0.18 -0.28,0.45 -0.39,0.63l-9.89 23c-1.1,2.91 -2.46,6.69 -3.21,10.16zm95.49 151.72l5.2 -17.67c1.61,-6.19 4.3,-12.27 6.47,-18.28l4.62 -11.59c9.65,-24.14 11.38,-24.21 21.92,-44.2l10.03 -14.43c1.62,-2.49 2.72,-5.15 4.44,-7.55 2.86,-3.99 21.99,-21.03 22.54,-25.1 1.35,-10.19 -14.56,-41.04 -22.12,-50.61l-7.62 -8.97c-1.91,-2.47 -0.86,-1.05 -3.25,-3.21 -14.98,-13.55 -10.96,-12.35 -27.1,-22.57l-2.77 -1.85c-15.44,-10.34 -15.22,-6.76 -43.44,12.17 -4.37,2.93 -7.06,8.17 -11.02,11.89 -13.99,13.17 -19.85,26.89 -27.99,43.59 -11.65,23.89 -2.69,22.8 5.42,31.65 6.83,7.45 23.71,30.95 25.82,33.82 0.12,0.17 0.32,0.43 0.44,0.59 10.46,13.87 21.63,40.51 27.01,55.48l11.4 36.84zm99.13 -126.65c1.25,7.4 2.03,23.5 1.12,30.88 -3.25,26.32 -12.47,61.43 -24.88,83.89 -9.81,17.75 -15.27,27.43 -27.07,42.23l-2.32 3.3c-0.14,0.18 -0.33,0.45 -0.47,0.63l-11.45 12.85c-3.27,3.28 -2.14,-0.04 -2.8,4.05 13.06,-1.29 45.7,-12.48 59.88,-18.95 14.74,-6.72 17.91,-6.97 32.57,-16.8 3.09,-2.07 5.53,-3.45 9.49,-5.94 4.74,-2.99 4.85,-4.35 8.92,-7.52 3.63,-2.82 5.49,-5.43 8.09,-7.34 1.8,-1.32 2.46,-1.33 4.45,-3.21l10.69 -13.37c8.01,-8.96 15.14,-18.4 19.81,-29.81 1.66,-4.06 3.34,-7.01 4.87,-10.69 7.63,-18.37 12.14,-47.94 11.61,-68.6 -0.14,-5.6 -0.9,-11.05 -0.95,-16.59 -0.06,-6.08 1.05,-8.94 -5.04,-10.31 -4.56,-1.03 -24.73,0.33 -30.16,1 -7.54,0.92 -18.12,3.93 -25.1,6.67 -13.65,5.36 -30.9,12.31 -41.26,23.63zm-83.94 200.97c-0.52,4.99 6.71,9.12 13.74,14.84l18.33 12.25c43.73,25.43 95.56,29.65 141.67,9.26 10.36,-4.58 37.41,-20.08 43.09,-30.28 -1.87,-1.71 -2.83,-2.49 -4.31,-3.91l-16.61 -14.26c-0.21,-0.13 -0.48,-0.31 -0.69,-0.45 -13.22,-8.77 -21.74,-14.19 -38.97,-18.04 -2.76,-0.62 -5.37,-0.81 -8.75,-1.61 -7.8,-1.85 -27.19,-1.76 -35.58,-0.35 -7.91,1.32 -18.76,6.96 -25.71,9.8 -10.74,4.4 -42.45,16.78 -54.93,18.65l-21.99 3.41c-3.53,0.18 -5.63,0.01 -9.29,0.69zm-23.06 229.43c16.78,-4.85 23.73,2.15 64.89,-15.89 11.39,-4.98 10.9,-4.54 21.04,-11.77 6.98,-4.98 12.08,-6.95 19.6,-14.54 2.68,-2.7 4.13,-5.62 6.58,-7.75l10.67 -11.22c3.78,-4.83 7.32,-7.89 10.31,-12.84 2.7,-4.48 9.61,-14.81 10.6,-20.33 -5.29,1.27 -5.51,1.65 -12.27,1.87 -6.5,0.2 -7.95,1.43 -14.06,2.3 -8.27,1.17 -16.55,3.95 -22.55,6.62 -7.88,3.51 -12.33,5.23 -20.2,9.58l-25.64 18.07 -29.63 29.81 -19.34 26.09zm-23.04 -253.55c-2.15,-4.81 -7.68,-7.8 -15.14,-17.12 -5.75,-7.18 -8.17,-10.75 -12.98,-17.99 -13.38,-20.15 -10.88,-14.74 -22.17,-39.3 -13.84,-30.1 -11.14,-32.88 -17.21,-59.98 -1.86,-8.34 -1.97,-43.17 -1.98,-43.19 -1.35,-2.49 -16.22,-11.41 -18.89,-13.05 -27.82,-17.11 -49.11,-17.47 -81.11,-16.88 -1.84,12.44 -0.6,32.95 -0.37,46.11 0.19,11.65 5.02,30.01 8.23,40.11 3.36,10.58 5.58,17.66 11.45,28.16l2.46 3.78c3.82,5.89 4.44,8.02 9.4,13.59 1.11,1.25 -0.37,-0.51 1.05,1.23 0.07,0.09 1.2,1.62 1.42,1.91l20.76 21.24c5.03,3.54 6.84,6.53 12.46,10.39 26.09,17.95 49.4,27.97 80.96,36.27 12.4,3.26 7.31,3.38 21.66,4.72zm-203.08 30.12c7.81,5.14 4.85,4.53 9.76,8.47l36.07 22.13c9.79,4.29 18.17,6.67 29.69,9.33 32.93,7.6 70.25,1.13 100.09,-12.64l18.13 -10.42c0.19,-0.13 0.44,-0.35 0.63,-0.49l21.84 -16.63c4.55,-3.41 3.39,0.08 5.52,-5.19 -3.79,-1.97 -32.3,-2.32 -61.49,-12.53 -8.92,-3.11 -16.53,-6.72 -26.19,-10.62l-26.79 -10.23c-28.03,-1.93 -39.98,1.35 -64.21,8.66 -9.03,2.72 -15.73,9.07 -22.66,13.73l-2.73 1.51c-6.42,3.6 -11.22,9.38 -17.66,14.92zm221.16 -42.39c-2.92,-28.12 -22.51,-85.66 -38.67,-109.58 -5.44,-8.06 -2.96,-8.48 -16.1,-24.63 -3.55,-4.37 -9.17,-9.3 -11.89,-14.76 0.39,17.41 3.03,30.81 6.37,47l6.08 20.1c7.9,21.91 36.6,65.68 53.54,81.27 0.15,0.14 0.43,0.42 0.67,0.6zm24.85 0.97c6.39,-3.69 21.08,-24.17 24.49,-30.06 6.27,-10.85 11.33,-14.76 20.93,-33.05 11.76,-22.38 14.94,-38.95 20.12,-61.42 0.21,-0.93 2.75,-22.12 0.84,-25.01 -4.29,6.33 -6.44,9.35 -11.27,15.66l-12.05 17.58c-0.25,0.36 -0.98,1.17 -1.48,1.87 -1.21,1.71 -1.16,1.84 -2.34,4.17 -18.44,36.13 -18.16,35.63 -31.15,76.8l-8.09 33.46z"/>
  <g id="_2285601947376">
   <polygon class="fil2 str1" points="276.31,674.62 139.1,455.86 139.1,437.11 276.31,218.36 276.31,238.02 146.92,443.88 146.92,449.09 276.31,654.95 "/>
   <polygon class="fil2 str1" points="884.26,674.62 1021.47,455.86 1021.47,437.11 884.26,218.36 884.26,238.02 1013.65,443.88 1013.65,449.09 884.26,654.95 "/>
  </g>
  <g id="_2285601880688">
   <path class="fil2 str2" d="M928.78 860.17l0 62.84 41.44 0c5.5,0 10.03,-1.15 13.59,-3.46 3.55,-2.3 6.17,-5.44 7.84,-9.42 1.68,-3.98 2.52,-8.42 2.52,-13.3l0 -10.48c0,-5.03 -0.81,-9.5 -2.42,-13.41 -1.61,-3.91 -4.12,-7.01 -7.54,-9.32 -3.42,-2.3 -7.88,-3.45 -13.38,-3.45l-42.05 0zm0 67.03l0 70.8 45.07 0c6.17,0 11.13,-1.36 14.89,-4.08 3.75,-2.73 6.54,-6.36 8.35,-10.89 1.81,-4.54 2.71,-9.61 2.71,-15.19l0 -10.48c0,-5.58 -0.94,-10.64 -2.81,-15.18 -1.88,-4.54 -4.77,-8.17 -8.66,-10.9 -3.89,-2.72 -8.92,-4.08 -15.09,-4.08l-44.46 0zm-4.43 74.99l0 -146.21 46.48 0c8.72,0 15.59,2.75 20.62,8.27 5.03,5.52 7.55,14.63 7.55,27.34 0,6.7 -0.77,12.29 -2.32,16.76 -1.54,4.47 -3.69,7.92 -6.44,10.37 -2.74,2.44 -6,4.22 -9.75,5.34l0 1.25c3.89,0.56 7.34,1.75 10.36,3.56 3.02,1.82 5.53,4.3 7.54,7.44 2.02,3.14 3.56,6.88 4.63,11.21 1.08,4.33 1.61,9.36 1.61,15.08 0,8.66 -1.17,15.96 -3.52,21.89 -2.35,5.94 -5.8,10.37 -10.36,13.3 -4.56,2.94 -10.2,4.4 -16.9,4.4l-49.5 0zm-46.48 -53l-17.51 -57.39 -9.65 -31.63 -0.81 0 -9.66 31.63 -17.5 57.39 55.13 0zm21.53 53l-4.83 0 -15.29 -49.01 -57.95 0 -15.29 49.01 -4.83 0 45.47 -146.21 7.25 0 45.47 146.21z"/>
   <polygon class="fil2 str2" points="788.13,1002.19 725.15,1002.19 725.15,855.98 729.58,855.98 729.58,998 788.13,998 "/>
   <polygon class="fil2 str3" points="529.38,1002.19 529.38,855.98 556.94,855.98 577.87,903.53 588.13,933.48 589.94,933.48 600.2,903.53 620.73,855.98 648.29,855.98 648.29,1002.19 624.55,1002.19 624.55,918.82 626.16,894.1 623.34,894.1 614.09,917.98 588.74,974.33 563.58,917.98 554.33,894.31 551.51,894.31 553.12,918.82 553.12,1002.19 "/>
   <polygon class="fil2 str3" points="504.63,1002.19 420.32,1002.19 420.32,855.98 504.63,855.98 504.63,878.81 445.47,878.81 445.47,916.93 497.18,916.93 497.18,939.56 445.47,939.56 445.47,979.36 504.63,979.36 "/>
   <polygon class="fil2 str3" points="272.23,1002.19 272.23,855.98 299.8,855.98 320.72,903.53 330.99,933.48 332.8,933.48 343.06,903.53 363.58,855.98 391.15,855.98 391.15,1002.19 367.41,1002.19 367.41,918.82 369.01,894.1 366.2,894.1 356.94,917.98 331.59,974.33 306.44,917.98 297.18,894.31 294.37,894.31 295.98,918.82 295.98,1002.19 "/>
   <polygon class="fil2 str3" points="250.7,979.36 250.7,1002.19 155.94,1002.19 155.94,979.15 220.32,878.81 159.15,878.81 159.15,855.98 248.89,855.98 248.89,879.02 184.51,979.36 "/>
  </g>
 </g>
</svg>
